<svg width="20" height="20" viewBox="0 0 20 20" fill="none" xmlns="http://www.w3.org/2000/svg">
<path d="M0 0H19.9503V10.7966L18.9628 12.3434L19.9503 13.72V20H0V9.82212L0.61718 9.11059L0 8.43001V0Z" fill="#016FD0"/>
<path d="M3.8728 13.9364V10.7964H7.18921L7.54502 11.2614L7.9126 10.7964H19.9503V13.7198C19.9503 13.7198 19.6355 13.9332 19.2714 13.9364H12.6059L12.2047 13.4414V13.9364H10.8901V13.0914C10.8901 13.0914 10.7106 13.2094 10.3223 13.2094H9.87488V13.9364H7.88447L7.52917 13.4614L7.1684 13.9364H3.8728Z" fill="white"/>
<path d="M0 8.43L0.747862 6.68213H2.04121L2.46563 7.66122V6.68213H4.07339L4.32604 7.38978L4.57099 6.68213H11.7881V7.03789C11.7881 7.03789 12.1675 6.68213 12.791 6.68213L15.1327 6.69033L15.5498 7.6566V6.68213H16.8953L17.2656 7.23717V6.68213H18.6234V9.82211H17.2656L16.9107 9.26527V9.82211H14.934L14.7352 9.32714H14.2037L14.0082 9.82211H12.6676C12.1311 9.82211 11.7881 9.47361 11.7881 9.47361V9.82211H9.76687L9.3657 9.32714V9.82211H1.84961L1.65096 9.32714H1.12123L0.923978 9.82211H0V8.43Z" fill="white"/>
<path d="M1.01261 7.06885L0.00390625 9.41997H0.660624L0.846743 8.94917H1.92874L2.11389 9.41997H2.78507L1.77733 7.06885H1.01261ZM1.38581 7.61602L1.71562 8.43873H1.05504L1.38581 7.61602Z" fill="#016FD0"/>
<path d="M2.85449 9.41997V7.06885L3.78772 7.07232L4.33052 8.58818L4.86033 7.06885H5.7861V9.41997H5.19978V7.68756L4.57826 9.41997H4.06406L3.44081 7.68756V9.41997H2.85449Z" fill="#016FD0"/>
<path d="M6.18726 9.41997V7.06885H8.10051V7.59476H6.77975V7.99692H8.06966V8.49189H6.77975V8.90953H8.10051V9.41997H6.18726Z" fill="#016FD0"/>
<path d="M8.43994 7.06885V9.41997H9.02626V8.5847H9.27313L9.97614 9.41997H10.6926L9.92117 8.55377C10.2378 8.52698 10.5644 8.25456 10.5644 7.83161C10.5644 7.33685 10.177 7.06885 9.7447 7.06885H8.43994ZM9.02626 7.59476H9.69648C9.85726 7.59476 9.97421 7.72083 9.97421 7.84224C9.97421 7.99844 9.82268 8.08973 9.70516 8.08973H9.02626V7.59476Z" fill="#016FD0"/>
<path d="M11.4024 9.41997H10.8037V7.06885H11.4024V9.41997Z" fill="#016FD0"/>
<path d="M12.8218 9.41997H12.6926C12.0674 9.41997 11.6877 8.92616 11.6877 8.25408C11.6877 7.56539 12.0631 7.06885 12.8527 7.06885H13.5007V7.62569H12.829C12.5085 7.62569 12.2818 7.87645 12.2818 8.25988C12.2818 8.7152 12.541 8.90643 12.9144 8.90643H13.0687L12.8218 9.41997Z" fill="#016FD0"/>
<path d="M14.0978 7.06885L13.0891 9.41997H13.7458L13.9319 8.94917H15.0139L15.1991 9.41997H15.8703L14.8625 7.06885H14.0978ZM14.471 7.61602L14.8008 8.43873H14.1402L14.471 7.61602Z" fill="#016FD0"/>
<path d="M15.9387 9.41997V7.06885H16.6842L17.636 8.54603V7.06885H18.2223V9.41997H17.501L16.525 7.90411V9.41997H15.9387Z" fill="#016FD0"/>
<path d="M4.27393 13.5342V11.1831H6.18719V11.709H4.86642V12.1112H6.15633V12.6062H4.86642V13.0238H6.18719V13.5342H4.27393Z" fill="#016FD0"/>
<path d="M13.6489 13.5342V11.1831H15.5622V11.709H14.2414V12.1112H15.5252V12.6062H14.2414V13.0238H15.5622V13.5342H13.6489Z" fill="#016FD0"/>
<path d="M6.26144 13.5342L7.19299 12.3732L6.23926 11.1831H6.97794L7.54594 11.9188L8.11587 11.1831H8.82563L7.88443 12.3587L8.8177 13.5342H8.07913L7.52762 12.8101L6.98952 13.5342H6.26144Z" fill="#016FD0"/>
<path d="M8.88745 11.1836V13.5347H9.4892V12.7923H10.1064C10.6286 12.7923 11.0244 12.5145 11.0244 11.9744C11.0244 11.527 10.714 11.1836 10.1826 11.1836H8.88745ZM9.4892 11.7153H10.1392C10.3079 11.7153 10.4285 11.819 10.4285 11.986C10.4285 12.1429 10.3085 12.2567 10.1372 12.2567H9.4892V11.7153Z" fill="#016FD0"/>
<path d="M11.2791 11.1831V13.5342H11.8654V12.699H12.1122L12.8152 13.5342H13.5318L12.7603 12.668C13.0769 12.6412 13.4035 12.3688 13.4035 11.9459C13.4035 11.4511 13.0161 11.1831 12.5838 11.1831H11.2791ZM11.8654 11.709H12.5356C12.6964 11.709 12.8133 11.8351 12.8133 11.9565C12.8133 12.1127 12.6618 12.204 12.5443 12.204H11.8654V11.709Z" fill="#016FD0"/>
<path d="M15.8337 13.5342V13.0238H17.0071C17.1808 13.0238 17.2559 12.9297 17.2559 12.8266C17.2559 12.7277 17.181 12.6278 17.0071 12.6278H16.4769C16.016 12.6278 15.7593 12.3463 15.7593 11.9236C15.7593 11.5467 15.9943 11.1831 16.6793 11.1831H17.821L17.5742 11.7121H16.5867C16.3979 11.7121 16.3398 11.8114 16.3398 11.9062C16.3398 12.0037 16.4116 12.1112 16.5558 12.1112H17.1113C17.6251 12.1112 17.848 12.4034 17.848 12.786C17.848 13.1973 17.5996 13.5342 17.0833 13.5342H15.8337Z" fill="#016FD0"/>
<path d="M17.9856 13.5342V13.0238H19.159C19.3326 13.0238 19.4078 12.9297 19.4078 12.8266C19.4078 12.7277 19.3329 12.6278 19.159 12.6278H18.6287C18.1678 12.6278 17.9111 12.3463 17.9111 11.9236C17.9111 11.5467 18.1462 11.1831 18.8311 11.1831H19.9729L19.726 11.7121H18.7385C18.5498 11.7121 18.4917 11.8114 18.4917 11.9062C18.4917 12.0037 18.5635 12.1112 18.7077 12.1112H19.2631C19.7769 12.1112 19.9999 12.4034 19.9999 12.786C19.9999 13.1973 19.7515 13.5342 19.2352 13.5342H17.9856Z" fill="#016FD0"/>
</svg>
