<svg width="27" height="20" viewBox="0 0 27 20" fill="none" xmlns="http://www.w3.org/2000/svg">
<path d="M14.4897 10.8543C17.422 10.8685 20.0985 8.43492 20.0985 5.47433C20.0985 2.23677 17.422 -0.00107643 14.4897 3.88443e-07H11.9661C8.99866 -0.00107643 6.55615 2.23744 6.55615 5.47433C6.55615 8.43557 8.99866 10.8686 11.9661 10.8543H14.4897Z" fill="#0079BE"/>
<path d="M11.9781 0.44873C9.26652 0.449592 7.06924 2.67322 7.0686 5.41763C7.06924 8.16156 9.2665 10.385 11.9781 10.3858C14.6903 10.385 16.888 8.16156 16.8884 5.41763C16.888 2.67322 14.6903 0.449592 11.9781 0.44873ZM8.8661 5.41763C8.86866 4.07656 9.69652 2.93298 10.8639 2.47854V8.35603C9.69652 7.90185 8.86864 6.75889 8.8661 5.41763ZM13.0918 8.35732V2.47834C14.2597 2.93168 15.0888 4.07591 15.0909 5.41763C15.0888 6.75976 14.2597 7.90312 13.0918 8.35732Z" fill="white"/>
<path d="M14.4897 10.8543C17.422 10.8685 20.0985 8.43492 20.0985 5.47433C20.0985 2.23677 17.422 -0.00107643 14.4897 3.88443e-07H11.9661C8.99866 -0.00107643 6.55615 2.23744 6.55615 5.47433C6.55615 8.43557 8.99866 10.8686 11.9661 10.8543H14.4897Z" fill="#0079BE"/>
<path d="M11.9781 0.44873C9.26652 0.449592 7.06924 2.67322 7.0686 5.41763C7.06924 8.16156 9.2665 10.385 11.9781 10.3858C14.6903 10.385 16.888 8.16156 16.8884 5.41763C16.888 2.67322 14.6903 0.449592 11.9781 0.44873ZM8.8661 5.41763C8.86866 4.07656 9.69652 2.93298 10.8639 2.47854V8.35603C9.69652 7.90185 8.86864 6.75889 8.8661 5.41763ZM13.0918 8.35732V2.47834C14.2597 2.93168 15.0888 4.07591 15.0909 5.41763C15.0888 6.75976 14.2597 7.90312 13.0918 8.35732Z" fill="white"/>
<path d="M0.524979 13.1898C0.524979 12.6763 0.260357 12.7101 0.00661259 12.7045V12.5562C0.22651 12.5671 0.451942 12.5671 0.672287 12.5671C0.909215 12.5671 1.23087 12.5562 1.6485 12.5562C3.10923 12.5562 3.90474 13.5434 3.90474 14.5543C3.90474 15.1196 3.57779 16.5408 1.58059 16.5408C1.293 16.5408 1.02755 16.5296 0.762524 16.5296C0.50878 16.5296 0.260357 16.5352 0.0065918 16.5408V16.3926C0.344868 16.3581 0.50878 16.3467 0.524959 15.9584V13.1898H0.524979ZM1.07802 15.8673C1.07802 16.3069 1.3886 16.3582 1.66491 16.3582C2.88382 16.3582 3.28402 15.4276 3.28402 14.5769C3.28402 13.5098 2.60688 12.7392 1.51827 12.7392C1.28666 12.7392 1.18022 12.756 1.07804 12.762L1.07802 15.8673Z" fill="#211E1F"/>
<path d="M4.10254 16.3923H4.2094C4.36714 16.3923 4.4802 16.3923 4.4802 16.2034V14.6567C4.4802 14.4058 4.39567 14.3709 4.18686 14.2574V14.1659C4.45188 14.0853 4.76824 13.9776 4.79035 13.9604C4.83016 13.9376 4.86379 13.9315 4.89211 13.9315C4.92001 13.9315 4.9317 13.966 4.9317 14.0119V16.2034C4.9317 16.3923 5.05581 16.3923 5.21376 16.3923H5.30955V16.5407C5.11752 16.5407 4.91999 16.5293 4.71734 16.5293C4.51426 16.5293 4.31096 16.5349 4.10256 16.5407V16.3923H4.10254ZM4.70603 13.0526C4.55917 13.0526 4.42975 12.9157 4.42975 12.7673C4.42975 12.6243 4.56513 12.4927 4.70603 12.4927C4.85228 12.4927 4.98256 12.6131 4.98256 12.7673C4.98256 12.9215 4.85805 13.0526 4.70603 13.0526Z" fill="#211E1F"/>
<path d="M5.8455 14.6908C5.8455 14.4797 5.78311 14.4229 5.51853 14.3143V14.206C5.76099 14.1261 5.99198 14.0518 6.26293 13.9317C6.27977 13.9317 6.29635 13.9433 6.29635 13.9887V14.36C6.61845 14.1261 6.89497 13.9316 7.27344 13.9316C7.7524 13.9316 7.92161 14.2857 7.92161 14.7308V16.2035C7.92161 16.3924 8.04572 16.3924 8.20389 16.3924H8.30545V16.5408C8.10745 16.5408 7.91014 16.5294 7.70749 16.5294C7.50417 16.5294 7.30086 16.535 7.09801 16.5408V16.3924H7.19934C7.35769 16.3924 7.46992 16.3924 7.46992 16.2035V14.7255C7.46992 14.3996 7.27344 14.24 6.95134 14.24C6.77106 14.24 6.48323 14.3884 6.29633 14.5142V16.2035C6.29633 16.3924 6.42105 16.3924 6.57926 16.3924H6.68058V16.5408C6.48323 16.5408 6.28547 16.5293 6.08241 16.5293C5.87952 16.5293 5.67603 16.535 5.47314 16.5408V16.3924H5.5749C5.73285 16.3924 5.84546 16.3924 5.84546 16.2035V14.6908H5.8455Z" fill="#211E1F"/>
<path d="M8.73451 14.9652C8.72278 15.0167 8.72278 15.1021 8.73451 15.2964C8.76773 15.8385 9.11278 16.2837 9.56341 16.2837C9.87399 16.2837 10.1171 16.1124 10.3255 15.9014L10.4043 15.9815C10.1446 16.3295 9.82309 16.6263 9.36076 16.6263C8.4635 16.6263 8.28296 15.7469 8.28296 15.3819C8.28296 14.2629 9.02759 13.9316 9.42225 13.9316C9.8795 13.9316 10.3706 14.2226 10.3759 14.8278C10.3759 14.8624 10.3759 14.8963 10.3706 14.9309L10.3195 14.9652H8.73451ZM9.7333 14.7823C9.87399 14.7823 9.89064 14.708 9.89064 14.6398C9.89064 14.3486 9.71585 14.1145 9.39973 14.1145C9.05594 14.1145 8.819 14.371 8.7513 14.7823H9.7333Z" fill="#211E1F"/>
<path d="M10.5059 16.3924H10.6583C10.8158 16.3924 10.9286 16.3924 10.9286 16.2035V14.5997C10.9286 14.4229 10.7202 14.3884 10.6353 14.3428V14.2575C11.0472 14.0802 11.273 13.9316 11.3243 13.9316C11.3578 13.9316 11.3744 13.9489 11.3744 14.0062V14.5198H11.3863C11.527 14.2973 11.7644 13.9316 12.1081 13.9316C12.2493 13.9316 12.4296 14.0286 12.4296 14.2342C12.4296 14.3884 12.3227 14.5258 12.1648 14.5258C11.9892 14.5258 11.9892 14.3884 11.7921 14.3884C11.696 14.3884 11.3804 14.5198 11.3804 14.8624V16.2035C11.3804 16.3924 11.4929 16.3924 11.6511 16.3924H11.9668V16.5408C11.6564 16.535 11.4204 16.5294 11.1773 16.5294C10.9461 16.5294 10.7089 16.535 10.5059 16.5408V16.3924H10.5059Z" fill="#211E1F"/>
<path d="M12.6779 15.7469C12.7514 16.1238 12.9768 16.4436 13.3889 16.4436C13.721 16.4436 13.8453 16.2382 13.8453 16.0383C13.8453 15.3647 12.6158 15.5815 12.6158 14.6626C12.6158 14.3428 12.8699 13.9316 13.4902 13.9316C13.6706 13.9316 13.913 13.9833 14.1329 14.0977L14.1729 14.6794H14.0429C13.9867 14.3202 13.7894 14.1145 13.4279 14.1145C13.2022 14.1145 12.9881 14.2459 12.9881 14.4912C12.9881 15.1597 14.2968 14.9536 14.2968 15.8497C14.2968 16.2264 13.9977 16.6263 13.3263 16.6263C13.1007 16.6263 12.8356 16.5464 12.6383 16.4325L12.5762 15.7758L12.6779 15.7469Z" fill="#211E1F"/>
<path d="M19.3912 13.5895H19.2504C19.1432 12.9218 18.6748 12.6533 18.0432 12.6533C17.394 12.6533 16.4518 13.0926 16.4518 14.4625C16.4518 15.6165 17.2647 16.4439 18.1333 16.4439C18.6916 16.4439 19.1546 16.0558 19.2675 15.4562L19.3969 15.4903L19.2675 16.3237C19.0305 16.4725 18.393 16.6265 18.0202 16.6265C16.7004 16.6265 15.8657 15.7644 15.8657 14.48C15.8657 13.3097 16.8979 12.4702 18.0036 12.4702C18.4605 12.4702 18.9005 12.6192 19.3349 12.7734L19.3912 13.5895Z" fill="#211E1F"/>
<path d="M23.2168 16.2264C23.2168 16.3296 23.2786 16.3352 23.3744 16.3352C23.4423 16.3352 23.5266 16.3296 23.6002 16.3296V16.4497C23.3574 16.4724 22.8948 16.5923 22.7875 16.6263L22.7591 16.6091V16.1472C22.4211 16.4267 22.1612 16.6263 21.7603 16.6263C21.4557 16.6263 21.1399 16.4267 21.1399 15.9475V14.4856C21.1399 14.3372 21.1175 14.1944 20.802 14.166V14.0575C21.0053 14.0519 21.4558 14.0176 21.5294 14.0176C21.592 14.0176 21.592 14.0575 21.592 14.183V15.6554C21.592 15.8271 21.592 16.3179 22.0824 16.3179C22.2742 16.3179 22.528 16.1695 22.7647 15.9703V14.4339C22.7647 14.3202 22.4941 14.2575 22.2915 14.2002V14.0975C22.7986 14.063 23.1151 14.0176 23.1711 14.0176C23.2168 14.0176 23.2168 14.0574 23.2168 14.1205V16.2264H23.2168Z" fill="#211E1F"/>
<path d="M24.3395 14.343C24.565 14.1489 24.8695 13.9319 25.1801 13.9319C25.8347 13.9319 26.2292 14.509 26.2292 15.1308C26.2292 15.8785 25.6878 16.6265 24.8806 16.6265C24.4634 16.6265 24.2435 16.4893 24.0966 16.4268L23.9276 16.5577L23.8094 16.4953C23.8595 16.1585 23.8882 15.8272 23.8882 15.4792V13.0245C23.8882 12.6532 23.803 12.6418 23.5889 12.5791V12.4878C23.8152 12.4138 24.0514 12.3108 24.17 12.2421C24.2322 12.2081 24.2771 12.1792 24.2946 12.1792C24.3282 12.1792 24.3395 12.2137 24.3395 12.2595V14.343H24.3395V14.343ZM24.3395 15.8955C24.3395 16.1126 24.5424 16.4783 24.9204 16.4783C25.5241 16.4783 25.7779 15.8785 25.7779 15.3703C25.7779 14.7539 25.3157 14.2403 24.8755 14.2403C24.6663 14.2403 24.4917 14.3775 24.3395 14.509V15.8955H24.3395Z" fill="#211E1F"/>
<path d="M0 19.8598H0.0432124C0.15348 19.8598 0.270135 19.8447 0.270135 19.6829V18.0557C0.270135 17.8937 0.15348 17.8784 0.0432124 17.8784H0V17.7852C0.119847 17.7852 0.303981 17.7974 0.454908 17.7974C0.608175 17.7974 0.792097 17.7852 0.936424 17.7852V17.8784H0.89321C0.783156 17.8784 0.66631 17.8937 0.66631 18.0557V19.6829C0.66631 19.8447 0.783156 19.8598 0.89321 19.8598H0.936424V19.9535C0.789117 19.9535 0.604556 19.9412 0.451501 19.9412C0.301022 19.9412 0.119847 19.9535 0 19.9535V19.8598Z" fill="#211E1F"/>
<path d="M3.04549 19.3412L3.05164 19.3352V18.1705C3.05164 17.9155 2.87647 17.8784 2.78451 17.8784H2.71679V17.7852C2.86133 17.7852 3.00247 17.7974 3.14658 17.7974C3.27237 17.7974 3.39884 17.7852 3.52443 17.7852V17.8784H3.47845C3.34924 17.8784 3.20491 17.9032 3.20491 18.2728V19.6864C3.20491 19.795 3.20808 19.9035 3.2232 19.9998H3.10635L1.52577 18.2168V19.4967C1.52577 19.767 1.5775 19.8598 1.81421 19.8598H1.86613V19.9535C1.73438 19.9535 1.60259 19.9412 1.4704 19.9412C1.33267 19.9412 1.19135 19.9535 1.05298 19.9535V19.8598H1.09598C1.30779 19.8598 1.3721 19.7142 1.3721 19.4659V18.1576C1.3721 17.9838 1.23054 17.8785 1.09302 17.8785H1.053V17.7852C1.16963 17.7852 1.28929 17.7975 1.40573 17.7975C1.49788 17.7975 1.5871 17.7852 1.67904 17.7852L3.04549 19.3412Z" fill="#211E1F"/>
<path d="M3.98387 17.9405C3.75333 17.9405 3.7446 17.9965 3.69862 18.223H3.60645C3.61858 18.1363 3.63391 18.0495 3.64327 17.959C3.6556 17.872 3.66156 17.7854 3.66156 17.6954H3.73543C3.76012 17.7887 3.83677 17.7854 3.92001 17.7854H5.50357C5.58657 17.7854 5.66323 17.7824 5.66961 17.689L5.74282 17.7015C5.7309 17.7854 5.71855 17.8692 5.70918 17.9532C5.70365 18.037 5.70365 18.121 5.70365 18.2045L5.61126 18.2392C5.60488 18.1244 5.58955 17.9405 5.38413 17.9405H4.88068V19.5932C4.88068 19.8327 4.98821 19.86 5.13507 19.86H5.19361V19.9537C5.07397 19.9537 4.85878 19.9415 4.69335 19.9415C4.50924 19.9415 4.294 19.9537 4.17416 19.9537V19.86H4.2327C4.40193 19.86 4.48751 19.8447 4.48751 19.5997V17.9405H3.98387Z" fill="#211E1F"/>
<path d="M5.84106 19.8598H5.88428C5.99457 19.8598 6.11139 19.8447 6.11139 19.6829V18.0557C6.11139 17.8937 5.99457 17.8784 5.88428 17.8784H5.84106V17.7852C6.02797 17.7852 6.34773 17.7974 6.60505 17.7974C6.8635 17.7974 7.18217 17.7852 7.39076 17.7852C7.3857 17.9185 7.38844 18.1239 7.39758 18.2603L7.30497 18.2852C7.29031 18.0835 7.25346 17.9221 6.93096 17.9221H6.50459V18.7356H6.86948C7.05357 18.7356 7.09383 18.6303 7.11192 18.4621H7.20388C7.19794 18.5837 7.19473 18.7048 7.19473 18.8258C7.19473 18.9441 7.19792 19.0619 7.20388 19.1799L7.11192 19.1984C7.09383 19.0121 7.08448 18.8911 6.87244 18.8911H6.50461V19.6145C6.50461 19.8167 6.68194 19.8167 6.87863 19.8167C7.2471 19.8167 7.40952 19.7915 7.50171 19.4379L7.58774 19.4592C7.54748 19.6242 7.51087 19.7885 7.48362 19.9535C7.28692 19.9535 6.93377 19.9412 6.65786 19.9412C6.38112 19.9412 6.01609 19.9535 5.84106 19.9535V19.8598Z" fill="#211E1F"/>
<path d="M8.00184 18.1144C8.00184 17.8879 7.87923 17.8786 7.78365 17.8786H7.72852V17.7852C7.82684 17.7852 8.01694 17.7976 8.20429 17.7976C8.38842 17.7976 8.53594 17.7852 8.69839 17.7852C9.08492 17.7852 9.42918 17.8909 9.42918 18.3324C9.42918 18.6113 9.24505 18.7823 9.00256 18.879L9.52729 19.6737C9.61327 19.8051 9.67439 19.8419 9.8251 19.86V19.9537C9.72378 19.9537 9.62541 19.9414 9.52429 19.9414C9.42916 19.9414 9.33058 19.9537 9.23583 19.9537C8.99954 19.6399 8.79648 19.3043 8.597 18.9468H8.39502V19.6119C8.39502 19.8514 8.50507 19.86 8.64619 19.86H8.70154V19.9537C8.52613 19.9537 8.34885 19.9414 8.17363 19.9414C8.02611 19.9414 7.88176 19.9537 7.72852 19.9537V19.86H7.78365C7.89773 19.86 8.00184 19.8079 8.00184 19.6926V18.1144ZM8.39498 18.8351H8.54486C8.85204 18.8351 9.01742 18.7171 9.01742 18.3505C9.01742 18.0744 8.84267 17.8971 8.56913 17.8971C8.47695 17.8971 8.43779 17.9068 8.39496 17.9096V18.8351H8.39498Z" fill="#211E1F"/>
<path d="M11.9095 19.3412L11.915 19.3352V18.1705C11.915 17.9155 11.7403 17.8784 11.6483 17.8784H11.5811V17.7852C11.7252 17.7852 11.8661 17.7974 12.0106 17.7974C12.1367 17.7974 12.2621 17.7852 12.3887 17.7852V17.8784H12.3425C12.2135 17.8784 12.0692 17.9032 12.0692 18.2728V19.6864C12.0692 19.795 12.0722 19.9035 12.0873 19.9998H11.9708L10.3901 18.2168V19.4967C10.3901 19.767 10.4422 19.8598 10.6785 19.8598H10.7306V19.9535C10.5989 19.9535 10.4667 19.9412 10.3349 19.9412C10.1963 19.9412 10.0552 19.9535 9.91724 19.9535V19.8598H9.95981C10.1719 19.8598 10.2363 19.7142 10.2363 19.4659V18.1576C10.2363 17.9838 10.0952 17.8785 9.95728 17.8785H9.91724V17.7852C10.0335 17.7852 10.1538 17.7975 10.2702 17.7975C10.3617 17.7975 10.4511 17.7852 10.5433 17.7852L11.9095 19.3412Z" fill="#211E1F"/>
<path d="M12.8823 19.5095C12.8512 19.6148 12.8142 19.6962 12.8142 19.7515C12.8142 19.845 12.9434 19.8601 13.0443 19.8601H13.0786V19.9538C12.9556 19.9471 12.8302 19.9415 12.7065 19.9415C12.596 19.9415 12.4862 19.9471 12.3755 19.9538V19.8601H12.394C12.5136 19.8601 12.6152 19.7888 12.6605 19.6581L13.1522 18.2328C13.1919 18.1178 13.2476 17.9625 13.2662 17.8473C13.3639 17.8135 13.4869 17.7515 13.545 17.714C13.5546 17.7108 13.5599 17.7075 13.5695 17.7075C13.5787 17.7075 13.5846 17.7075 13.5914 17.7172C13.6004 17.7418 13.6093 17.77 13.6191 17.7947L14.1838 19.4194C14.2207 19.528 14.257 19.6428 14.2969 19.7362C14.3339 19.8233 14.3986 19.8601 14.5002 19.8601H14.5183V19.9538C14.3802 19.9471 14.2418 19.9415 14.0949 19.9415C13.9444 19.9415 13.7905 19.9471 13.634 19.9538V19.8601H13.6681C13.7383 19.8601 13.8584 19.848 13.8584 19.7703C13.8584 19.73 13.8307 19.6462 13.7965 19.5465L13.677 19.1862H12.9803L12.8823 19.5095ZM13.3302 18.1333H13.324L13.0385 19.0124H13.6123L13.3302 18.1333Z" fill="#211E1F"/>
<path d="M14.6533 17.9405C14.423 17.9405 14.4138 17.9965 14.3676 18.223H14.2754C14.2875 18.1363 14.3031 18.0495 14.3127 17.959C14.325 17.872 14.3306 17.7854 14.3306 17.6954H14.4046C14.4291 17.7887 14.5062 17.7854 14.5886 17.7854H16.173C16.2554 17.7854 16.332 17.7824 16.3384 17.689L16.4118 17.7015C16.4001 17.7854 16.388 17.8692 16.3786 17.9532C16.372 18.037 16.372 18.121 16.372 18.2045L16.2801 18.2392C16.2743 18.1244 16.259 17.9405 16.0531 17.9405H15.5497V19.5932C15.5497 19.8327 15.6574 19.86 15.8043 19.86H15.8626V19.9537C15.743 19.9537 15.5284 19.9415 15.3623 19.9415C15.1784 19.9415 14.9632 19.9537 14.8436 19.9537V19.86H14.9017C15.0709 19.86 15.1569 19.8447 15.1569 19.5997V17.9405H14.6533Z" fill="#211E1F"/>
<path d="M16.5251 19.8598H16.5682C16.6791 19.8598 16.795 19.8447 16.795 19.6829V18.0557C16.795 17.8937 16.6791 17.8784 16.5682 17.8784H16.5251V17.7852C16.645 17.7852 16.8289 17.7974 16.979 17.7974C17.1331 17.7974 17.3173 17.7852 17.4616 17.7852V17.8784H17.4186C17.3081 17.8784 17.191 17.8937 17.191 18.0557V19.6829C17.191 19.8447 17.3081 19.8598 17.4186 19.8598H17.4616V19.9535C17.3141 19.9535 17.1297 19.9412 16.9767 19.9412C16.826 19.9412 16.645 19.9535 16.5251 19.9535V19.8598Z" fill="#211E1F"/>
<path d="M21.9305 19.3412L21.9367 19.3352V18.1705C21.9367 17.9155 21.7613 17.8784 21.6691 17.8784H21.6027V17.7852C21.7466 17.7852 21.8877 17.7974 22.0316 17.7974C22.1578 17.7974 22.2836 17.7852 22.4097 17.7852V17.8784H22.3633C22.2347 17.8784 22.0901 17.9032 22.0901 18.2728V19.6864C22.0901 19.795 22.0931 19.9035 22.1087 19.9998H21.9922L20.411 18.2168V19.4967C20.411 19.767 20.4629 19.8598 20.6992 19.8598H20.7518V19.9535C20.6196 19.9535 20.4879 19.9412 20.3558 19.9412C20.2177 19.9412 20.0761 19.9535 19.938 19.9535V19.8598H19.9812C20.1934 19.8598 20.2571 19.7142 20.2571 19.4659V18.1576C20.2571 17.9838 20.1165 17.8785 19.978 17.8785H19.938V17.7852C20.0546 17.7852 20.1745 17.7975 20.2909 17.7975C20.3831 17.7975 20.4719 17.7852 20.5643 17.7852L21.9305 19.3412Z" fill="#211E1F"/>
<path d="M25.3132 19.6489C25.3132 19.7732 25.3983 19.8102 25.4967 19.8229C25.6225 19.8324 25.7607 19.8324 25.9025 19.8167C26.031 19.801 26.1417 19.7265 26.1966 19.6489C26.2456 19.5804 26.2733 19.4934 26.2918 19.4252H26.3808C26.3471 19.6022 26.3041 19.7766 26.2671 19.9534C25.9976 19.9534 25.7268 19.9412 25.4571 19.9412C25.1866 19.9412 24.9168 19.9534 24.6467 19.9534V19.8597H24.6889C24.8 19.8597 24.9201 19.8447 24.9201 19.6519V18.0557C24.9201 17.8937 24.8 17.8784 24.6889 17.8784H24.6467V17.7852C24.8089 17.7852 24.9688 17.7974 25.1312 17.7974C25.2883 17.7974 25.4416 17.7852 25.5982 17.7852V17.8784H25.521C25.4047 17.8784 25.3132 17.8819 25.3132 18.046V19.6489Z" fill="#211E1F"/>
<path d="M26.3436 17.6968C26.5286 17.6968 26.6668 17.8406 26.6668 18.025C26.6668 18.2085 26.5286 18.3511 26.3436 18.3511C26.1586 18.3511 26.0203 18.2085 26.0203 18.025C26.0202 17.8407 26.1586 17.6968 26.3436 17.6968ZM26.3436 18.2901C26.4882 18.2901 26.5993 18.1652 26.5993 18.025C26.5993 17.8839 26.4899 17.7579 26.3436 17.7579C26.1982 17.7579 26.0871 17.884 26.0871 18.025C26.0871 18.1652 26.1982 18.2901 26.3436 18.2901ZM26.1827 18.1973V18.1811C26.2225 18.1755 26.2297 18.1768 26.2297 18.1518V17.9098C26.2297 17.8758 26.2261 17.8641 26.1842 17.8658V17.8493H26.3496C26.4066 17.8493 26.4588 17.8766 26.4588 17.936C26.4588 17.9847 26.4268 18.0207 26.3823 18.0347L26.4353 18.1096C26.4602 18.1436 26.4881 18.1755 26.5067 18.1867V18.1973H26.4437C26.4134 18.1973 26.387 18.1329 26.3274 18.0465H26.2917V18.1553C26.2917 18.1768 26.2991 18.1755 26.3389 18.1811V18.1973H26.1827V18.1973ZM26.2917 18.025H26.3298C26.3715 18.025 26.3911 17.9929 26.3911 17.9414C26.3911 17.8893 26.3608 17.871 26.3276 17.871H26.2917V18.025Z" fill="#211E1F"/>
<path d="M19.5948 16.3926H19.7016C19.8598 16.3926 19.973 16.3926 19.973 16.2037V13.0245C19.973 12.6532 19.8883 12.6418 19.6737 12.5791V12.4878C19.8994 12.4138 20.1363 12.3108 20.2549 12.2421C20.3164 12.2081 20.3619 12.1792 20.3785 12.1792C20.413 12.1792 20.4243 12.2137 20.4243 12.2595V16.2037C20.4243 16.3926 20.5482 16.3926 20.7064 16.3926H20.8015V16.541C20.6106 16.541 20.4131 16.5296 20.2097 16.5296C20.0069 16.5296 19.8038 16.5352 19.5947 16.541V16.3926H19.5948Z" fill="#211E1F"/>
<path d="M18.6857 17.7388C19.3401 17.7388 19.8616 18.1493 19.8616 18.8106C19.8616 19.5252 19.3552 20.0001 18.7017 20.0001C18.0503 20.0001 17.5535 19.5528 17.5535 18.8849C17.5535 18.2391 18.0473 17.7388 18.6857 17.7388ZM18.7321 19.8633C19.3277 19.8633 19.4314 19.3318 19.4314 18.8789C19.4314 18.4249 19.1896 17.8753 18.6798 17.8753C18.1425 17.8753 17.983 18.3599 17.983 18.7757C17.983 19.3318 18.2347 19.8633 18.7321 19.8633Z" fill="#211E1F"/>
<path d="M22.9028 19.5095C22.8727 19.6148 22.8355 19.6962 22.8355 19.7515C22.8355 19.845 22.9647 19.8601 23.0654 19.8601H23.0997V19.9538C22.9768 19.9471 22.8508 19.9415 22.728 19.9415C22.6171 19.9415 22.507 19.9471 22.397 19.9538V19.8601H22.4144C22.5347 19.8601 22.6365 19.7888 22.6818 19.6581L23.1736 18.2328C23.2131 18.1178 23.2687 17.9625 23.2866 17.8473C23.3849 17.8135 23.5076 17.7515 23.5665 17.714C23.5752 17.7108 23.5814 17.7075 23.5908 17.7075C23.5999 17.7075 23.6057 17.7075 23.6119 17.7172C23.6212 17.7418 23.6308 17.77 23.64 17.7947L24.2045 19.4194C24.2413 19.528 24.278 19.6428 24.3184 19.7362C24.3552 19.8233 24.4199 19.8601 24.5208 19.8601H24.5396V19.9538C24.4012 19.9471 24.2631 19.9415 24.1155 19.9415C23.9654 19.9415 23.8118 19.9471 23.6551 19.9538V19.8601H23.6892C23.7592 19.8601 23.8797 19.848 23.8797 19.7703C23.8797 19.73 23.8518 19.6462 23.8175 19.5465L23.6983 19.1862H23.0014L22.9028 19.5095ZM23.3515 18.1333H23.3453L23.0595 19.0124H23.634L23.3515 18.1333Z" fill="#211E1F"/>
</svg>
