<svg width="27" height="20" viewBox="0 0 27 20" fill="none" xmlns="http://www.w3.org/2000/svg">
<path d="M4.85265 19.9558V18.6284C4.85265 18.1195 4.53219 17.7877 3.98284 17.7877C3.70816 17.7877 3.41059 17.8762 3.20458 18.1638C3.04435 17.9204 2.81545 17.7877 2.4721 17.7877C2.24321 17.7877 2.01431 17.854 1.83119 18.0974V17.8319H1.3505V19.9558H1.83119V18.7832C1.83119 18.4071 2.0372 18.2301 2.35765 18.2301C2.67811 18.2301 2.83834 18.4293 2.83834 18.7832V19.9558H3.31903V18.7832C3.31903 18.4071 3.54793 18.2301 3.8455 18.2301C4.16595 18.2301 4.32618 18.4293 4.32618 18.7832V19.9558H4.85265ZM11.9714 17.8319H11.1931V17.1903H10.7125V17.8319H10.2775V18.2523H10.7125V19.2257C10.7125 19.7124 10.9185 20.0001 11.4678 20.0001C11.6738 20.0001 11.9027 19.9337 12.063 19.8452L11.9256 19.447C11.7883 19.5355 11.628 19.5576 11.5136 19.5576C11.2847 19.5576 11.1931 19.4248 11.1931 19.2036V18.2523H11.9714V17.8319ZM16.0458 17.7877C15.7711 17.7877 15.588 17.9204 15.4735 18.0974V17.8319H14.9929V19.9558H15.4735V18.7611C15.4735 18.4071 15.6338 18.208 15.9313 18.208C16.0229 18.208 16.1374 18.2301 16.2289 18.2523L16.3663 17.8098C16.2747 17.7877 16.1373 17.7877 16.0458 17.7877ZM9.88842 18.0089C9.65952 17.854 9.33906 17.7877 8.99571 17.7877C8.44636 17.7877 8.08012 18.0532 8.08012 18.4735C8.08012 18.8275 8.35479 19.0266 8.83548 19.093L9.06438 19.1151C9.31617 19.1593 9.45351 19.2257 9.45351 19.3363C9.45351 19.4912 9.27039 19.6018 8.94993 19.6018C8.62947 19.6018 8.37769 19.4912 8.21746 19.3806L7.98856 19.7346C8.24035 19.9116 8.5837 20.0001 8.92705 20.0001C9.56796 20.0001 9.9342 19.7125 9.9342 19.3142C9.9342 18.9381 9.63663 18.739 9.17883 18.6726L8.94993 18.6505C8.74392 18.6284 8.5837 18.5841 8.5837 18.4514C8.5837 18.2965 8.74393 18.208 8.99571 18.208C9.27039 18.208 9.54507 18.3186 9.68241 18.385L9.88842 18.0089ZM22.661 17.7877C22.3863 17.7877 22.2032 17.9204 22.0887 18.0974V17.8319H21.608V19.9558H22.0887V18.7611C22.0887 18.4071 22.2489 18.208 22.5465 18.208C22.6381 18.208 22.7525 18.2301 22.8441 18.2523L22.9814 17.8098C22.8899 17.7877 22.7525 17.7877 22.661 17.7877ZM16.5265 18.8939C16.5265 19.5355 16.9843 20.0001 17.6939 20.0001C18.0143 20.0001 18.2432 19.9337 18.4721 19.7567L18.2432 19.3806C18.0601 19.5133 17.877 19.5797 17.671 19.5797C17.2818 19.5797 17.0072 19.3142 17.0072 18.8939C17.0072 18.4956 17.2818 18.2301 17.671 18.208C17.877 18.208 18.0601 18.2744 18.2432 18.4071L18.4721 18.031C18.2432 17.854 18.0143 17.7877 17.6939 17.7877C16.9843 17.7877 16.5265 18.2523 16.5265 18.8939ZM20.9671 18.8939V17.8319H20.4864V18.0974C20.3262 17.8983 20.0973 17.7877 19.7997 17.7877C19.1817 17.7877 18.701 18.2523 18.701 18.8939C18.701 19.5355 19.1817 20.0001 19.7997 20.0001C20.1202 20.0001 20.3491 19.8894 20.4864 19.6903V19.9558H20.9671V18.8939ZM19.2046 18.8939C19.2046 18.5178 19.4564 18.208 19.8684 18.208C20.2575 18.208 20.5322 18.4956 20.5322 18.8939C20.5322 19.27 20.2575 19.5797 19.8684 19.5797C19.4564 19.5576 19.2046 19.27 19.2046 18.8939ZM13.4592 17.7877C12.8183 17.7877 12.3605 18.2301 12.3605 18.8939C12.3605 19.5576 12.8183 20.0001 13.4821 20.0001C13.8026 20.0001 14.123 19.9116 14.3748 19.7124L14.1459 19.3806C13.9628 19.5133 13.7339 19.6018 13.505 19.6018C13.2074 19.6018 12.9099 19.4691 12.8412 19.093H14.4664C14.4664 19.0266 14.4664 18.9824 14.4664 18.916C14.4893 18.2301 14.0773 17.7877 13.4592 17.7877ZM13.4592 18.1859C13.7568 18.1859 13.9628 18.3629 14.0086 18.6947H12.8641C12.9099 18.4071 13.1159 18.1859 13.4592 18.1859ZM25.3849 18.8939V16.9912H24.9042V18.0974C24.7439 17.8983 24.515 17.7877 24.2175 17.7877C23.5994 17.7877 23.1188 18.2523 23.1188 18.8939C23.1188 19.5355 23.5994 20.0001 24.2175 20.0001C24.5379 20.0001 24.7668 19.8894 24.9042 19.6903V19.9558H25.3849V18.8939ZM23.6223 18.8939C23.6223 18.5178 23.8741 18.208 24.2861 18.208C24.6753 18.208 24.9499 18.4956 24.9499 18.8939C24.9499 19.27 24.6753 19.5797 24.2861 19.5797C23.8741 19.5576 23.6223 19.27 23.6223 18.8939ZM7.55366 18.8939V17.8319H7.07297V18.0974C6.91274 17.8983 6.68384 17.7877 6.38627 17.7877C5.76824 17.7877 5.28755 18.2523 5.28755 18.8939C5.28755 19.5355 5.76824 20.0001 6.38627 20.0001C6.70673 20.0001 6.93563 19.8894 7.07297 19.6903V19.9558H7.55366V18.8939ZM5.76824 18.8939C5.76824 18.5178 6.02003 18.208 6.43205 18.208C6.82117 18.208 7.09586 18.4956 7.09586 18.8939C7.09586 19.27 6.82117 19.5797 6.43205 19.5797C6.02003 19.5576 5.76824 19.27 5.76824 18.8939Z" fill="black"/>
<path d="M16.9385 1.70361H9.7282V14.2257H16.9385V1.70361Z" fill="#FF5F00"/>
<path d="M10.186 7.96461C10.186 5.42036 11.422 3.16372 13.3219 1.70354C11.9256 0.641596 10.1631 0 8.24035 0C3.68527 0 0 3.56195 0 7.96461C0 12.3673 3.68527 15.9292 8.24035 15.9292C10.1631 15.9292 11.9256 15.2876 13.3219 14.2257C11.422 12.7876 10.186 10.5089 10.186 7.96461Z" fill="#EB001B"/>
<path d="M26.6667 7.96461C26.6667 12.3673 22.9814 15.9292 18.4264 15.9292C16.5036 15.9292 14.7411 15.2876 13.3448 14.2257C15.2676 12.7655 16.4807 10.5089 16.4807 7.96461C16.4807 5.42036 15.2447 3.16372 13.3448 1.70354C14.7411 0.641596 16.5036 0 18.4264 0C22.9814 0 26.6667 3.58407 26.6667 7.96461Z" fill="#F79E1B"/>
</svg>
