<svg width="32" height="8" viewBox="0 0 32 8" fill="none" xmlns="http://www.w3.org/2000/svg">
<path d="M11.9654 1.78906H10.1946C10.0734 1.78906 9.97036 1.87919 9.95145 2.00167L9.23526 6.65062C9.22102 6.74234 9.29041 6.82505 9.38129 6.82505H10.2267C10.3479 6.82505 10.4509 6.73492 10.4698 6.61218L10.663 5.35829C10.6816 5.23555 10.7849 5.14542 10.9059 5.14542H11.4664C12.6329 5.14542 13.3061 4.56751 13.4819 3.42231C13.5612 2.92128 13.4853 2.52761 13.2562 2.25192C13.0045 1.94918 12.5581 1.78906 11.9654 1.78906ZM12.1697 3.48699C12.0729 4.13753 11.5874 4.13753 11.1179 4.13753H10.8507L11.0382 2.9226C11.0493 2.84917 11.1115 2.79509 11.184 2.79509H11.3064C11.6262 2.79509 11.9279 2.79509 12.0837 2.98172C12.1767 3.09306 12.2052 3.25848 12.1697 3.48699Z" fill="#253B80"/>
<path d="M17.2586 3.46593H16.4106C16.3384 3.46593 16.276 3.52001 16.2648 3.59344L16.2273 3.83626L16.168 3.74825C15.9844 3.47547 15.575 3.38428 15.1665 3.38428C14.2294 3.38428 13.429 4.1109 13.2732 5.13019C13.1921 5.63864 13.3073 6.12482 13.5891 6.46388C13.8475 6.77563 14.2172 6.90552 14.6571 6.90552C15.4122 6.90552 15.8309 6.40847 15.8309 6.40847L15.7931 6.64971C15.7788 6.74196 15.8482 6.82467 15.9386 6.82467H16.7024C16.8239 6.82467 16.9264 6.73454 16.9456 6.6118L17.4039 3.64036C17.4184 3.5489 17.3492 3.46593 17.2586 3.46593ZM16.0766 5.15564C15.9948 5.65163 15.6103 5.98458 15.1198 5.98458C14.8736 5.98458 14.6768 5.90373 14.5505 5.75051C14.4251 5.59834 14.3775 5.38176 14.4174 5.14053C14.4938 4.64878 14.8847 4.30495 15.3676 4.30495C15.6084 4.30495 15.8042 4.38686 15.9331 4.54141C16.0623 4.69755 16.1136 4.91546 16.0766 5.15564Z" fill="#253B80"/>
<path d="M21.7749 3.46631H20.9227C20.8414 3.46631 20.765 3.50766 20.719 3.57685L19.5437 5.34927L19.0455 3.64604C19.0142 3.53947 18.9181 3.46631 18.8094 3.46631H17.972C17.8702 3.46631 17.7995 3.5681 17.8319 3.66619L18.7705 6.48626L17.8881 7.76163C17.8187 7.8621 17.8886 8.00021 18.0085 8.00021H18.8596C18.9404 8.00021 19.016 7.95992 19.0618 7.89205L21.896 3.70357C21.9639 3.60336 21.8942 3.46631 21.7749 3.46631Z" fill="#253B80"/>
<path d="M24.596 1.78906H22.8249C22.704 1.78906 22.601 1.87919 22.5821 2.00167L21.8659 6.65062C21.8516 6.74234 21.921 6.82505 22.0114 6.82505H22.9202C23.0046 6.82505 23.0769 6.76196 23.0901 6.67607L23.2933 5.35829C23.312 5.23555 23.4153 5.14542 23.5362 5.14542H24.0965C25.2633 5.14542 25.9362 4.56751 26.1123 3.42231C26.1918 2.92128 26.1154 2.52761 25.8863 2.25192C25.6348 1.94918 25.1887 1.78906 24.596 1.78906ZM24.8003 3.48699C24.7037 4.13753 24.2182 4.13753 23.7485 4.13753H23.4816L23.6693 2.9226C23.6804 2.84917 23.7421 2.79509 23.8148 2.79509H23.9373C24.2568 2.79509 24.5587 2.79509 24.7146 2.98172C24.8076 3.09306 24.8358 3.25848 24.8003 3.48699Z" fill="#179BD7"/>
<path d="M29.8891 3.46593H29.0416C28.9689 3.46593 28.907 3.52001 28.8961 3.59344L28.8585 3.83626L28.799 3.74825C28.6154 3.47547 28.2063 3.38428 27.7977 3.38428C26.8607 3.38428 26.0606 4.1109 25.9047 5.13019C25.8239 5.63864 25.9386 6.12482 26.2203 6.46388C26.4793 6.77563 26.8485 6.90552 27.2884 6.90552C28.0434 6.90552 28.4621 6.40847 28.4621 6.40847L28.4243 6.64971C28.4101 6.74196 28.4795 6.82467 28.5704 6.82467H29.3339C29.4549 6.82467 29.5579 6.73454 29.5768 6.6118L30.0354 3.64036C30.0494 3.5489 29.98 3.46593 29.8891 3.46593ZM28.7071 5.15564C28.6258 5.65163 28.2407 5.98458 27.7503 5.98458C27.5046 5.98458 27.3073 5.90373 27.1809 5.75051C27.0556 5.59834 27.0085 5.38176 27.0479 5.14053C27.1248 4.64878 27.5152 4.30495 27.9981 4.30495C28.2389 4.30495 28.4347 4.38686 28.5636 4.54141C28.6934 4.69755 28.7446 4.91546 28.7071 5.15564Z" fill="#179BD7"/>
<path d="M30.8888 1.91684L30.162 6.65089C30.1478 6.74261 30.2172 6.82532 30.3075 6.82532H31.0382C31.1597 6.82532 31.2627 6.73519 31.2814 6.61245L31.9981 1.96376C32.0123 1.87204 31.9429 1.78906 31.8526 1.78906H31.0343C30.9621 1.78933 30.9 1.84341 30.8888 1.91684Z" fill="#179BD7"/>
<path d="M1.88058 7.72858L2.016 6.84794L1.71435 6.84078H0.273926L1.27494 0.34253C1.27805 0.322913 1.28815 0.304621 1.30291 0.291632C1.31767 0.278642 1.33657 0.271484 1.35625 0.271484H3.785C4.5913 0.271484 5.14774 0.443265 5.43826 0.782321C5.57445 0.941377 5.66119 1.10759 5.70314 1.29051C5.74716 1.48243 5.74793 1.71174 5.70495 1.99141L5.70185 2.01183V2.19103L5.83804 2.27003C5.95275 2.33233 6.04389 2.40364 6.1138 2.48528C6.23032 2.62128 6.30567 2.79412 6.33752 2.99904C6.3704 3.20979 6.35952 3.46057 6.30567 3.74448C6.24352 4.07108 6.14306 4.35552 6.00738 4.58828C5.88258 4.80274 5.7236 4.98062 5.53484 5.11846C5.35462 5.24942 5.14049 5.34883 4.89839 5.41245C4.6638 5.47502 4.39633 5.50656 4.10296 5.50656H3.91394C3.77878 5.50656 3.64751 5.5564 3.54445 5.64574C3.44114 5.73693 3.37278 5.86152 3.35181 5.99778L3.33757 6.07704L3.09832 7.62917L3.08744 7.68616C3.0846 7.70419 3.07968 7.7132 3.07243 7.7193C3.06595 7.72487 3.05663 7.72858 3.04757 7.72858H1.88058Z" fill="#253B80"/>
<path d="M5.96774 2.03223C5.96049 2.07968 5.95221 2.12819 5.94289 2.17803C5.62259 3.86164 4.52681 4.44326 3.1273 4.44326H2.41473C2.24357 4.44326 2.09935 4.5705 2.07268 4.74334L1.70785 7.11222L1.60454 7.78371C1.58719 7.89717 1.67264 7.99949 1.78449 7.99949H3.04832C3.19799 7.99949 3.32512 7.88815 3.34868 7.73705L3.36111 7.67131L3.59907 6.12528L3.61434 6.04045C3.63765 5.88881 3.76504 5.77747 3.9147 5.77747H4.10372C5.32819 5.77747 6.28674 5.26849 6.5669 3.79563C6.68394 3.18035 6.62335 2.6666 6.31367 2.30527C6.21994 2.19632 6.10368 2.10592 5.96774 2.03223Z" fill="#179BD7"/>
<path d="M5.63276 1.89553C5.58383 1.88095 5.53333 1.8677 5.48155 1.85577C5.4295 1.84411 5.37616 1.83377 5.32127 1.82475C5.12915 1.79294 4.91864 1.77783 4.69311 1.77783H2.78947C2.7426 1.77783 2.69807 1.7887 2.65819 1.80832C2.57041 1.85153 2.50516 1.93662 2.48937 2.04081L2.08441 4.66683L2.07275 4.74344C2.09942 4.5706 2.24365 4.44335 2.4148 4.44335H3.12737C4.52688 4.44335 5.62266 3.86147 5.94296 2.17812C5.95254 2.12829 5.96057 2.07977 5.96782 2.03232C5.88677 1.98832 5.799 1.95067 5.70449 1.9186C5.68118 1.91064 5.6571 1.90296 5.63276 1.89553Z" fill="#222D65"/>
<path d="M2.48934 2.04096C2.50513 1.93678 2.57038 1.85168 2.65816 1.80874C2.69829 1.78912 2.74257 1.77825 2.78943 1.77825H4.69308C4.9186 1.77825 5.12911 1.79336 5.32124 1.82517C5.37613 1.83419 5.42947 1.84452 5.48151 1.85619C5.5333 1.86812 5.58379 1.88137 5.63273 1.89595C5.65707 1.90338 5.68115 1.91106 5.70471 1.91875C5.79922 1.95083 5.887 1.98874 5.96804 2.03248C6.06333 1.4103 5.96726 0.98668 5.63868 0.603089C5.27644 0.180794 4.62265 0 3.78605 0H1.3573C1.18641 0 1.04063 0.127245 1.01422 0.300352L0.00258639 6.86541C-0.0173511 6.9953 0.0805239 7.11247 0.208435 7.11247H1.70789L2.08437 4.66698L2.48934 2.04096Z" fill="#253B80"/>
</svg>
